<?xml version="1.0" encoding="UTF-8" standalone="no"?>
<!-- Created with Inkscape (http://www.inkscape.org/) -->

<svg
   xmlns:dc="http://purl.org/dc/elements/1.1/"
   xmlns:cc="http://creativecommons.org/ns#"
   xmlns:rdf="http://www.w3.org/1999/02/22-rdf-syntax-ns#"
   xmlns:svg="http://www.w3.org/2000/svg"
   xmlns="http://www.w3.org/2000/svg"
   xmlns:sodipodi="http://sodipodi.sourceforge.net/DTD/sodipodi-0.dtd"
   xmlns:inkscape="http://www.inkscape.org/namespaces/inkscape"
   width="158.72328"
   height="111.37356"
   id="svg2"
   version="1.1"
   inkscape:version="0.48.4 r9939"
   sodipodi:docname="adblockCash_2_clean_svg.svg"
   inkscape:export-filename="/home/listmsz/Pobrane/adblockCash_2.png"
   inkscape:export-xdpi="90"
   inkscape:export-ydpi="90">
  <defs
     id="defs4" />
  <sodipodi:namedview
     id="base"
     pagecolor="#ffffff"
     bordercolor="#666666"
     borderopacity="1.0"
     inkscape:pageopacity="0.0"
     inkscape:pageshadow="2"
     inkscape:zoom="0.9899495"
     inkscape:cx="-64.199985"
     inkscape:cy="-111.73093"
     inkscape:document-units="px"
     inkscape:current-layer="layer1"
     showgrid="false"
     inkscape:window-width="1315"
     inkscape:window-height="744"
     inkscape:window-x="45"
     inkscape:window-y="24"
     inkscape:window-maximized="1"
     showguides="true"
     inkscape:guide-bbox="true"
     inkscape:snap-global="false"
     fit-margin-left="2"
     fit-margin-top="2"
     fit-margin-right="2"
     fit-margin-bottom="2">
    <sodipodi:guide
       orientation="0,1"
       position="-15.693085,36.153493"
       id="guide3880" />
    <sodipodi:guide
       orientation="0,1"
       position="35.067075,66.205523"
       id="guide3882" />
    <sodipodi:guide
       orientation="0,1"
       position="43.653375,4.586223"
       id="guide3884" />
    <sodipodi:guide
       orientation="-0.70710678,0.70710678"
       position="-10.389785,36.153493"
       id="guide3886" />
    <sodipodi:guide
       orientation="0.70710678,0.70710678"
       position="-18.976085,11.783563"
       id="guide3888" />
    <sodipodi:guide
       orientation="0.70710678,0.70710678"
       position="30.773935,13.930133"
       id="guide3890" />
    <sodipodi:guide
       orientation="0.70710678,0.70710678"
       position="48.325335,-3.621267"
       id="guide3892" />
    <sodipodi:guide
       orientation="0.70710678,0.70710678"
       position="-14.714505,57.082583"
       id="guide3894" />
    <sodipodi:guide
       orientation="0.70710678,0.70710678"
       position="-14.140935,10.158003"
       id="guide3896" />
    <sodipodi:guide
       orientation="1,0"
       position="79.528267,20.323903"
       id="guide3217" />
  </sodipodi:namedview>
  <metadata
     id="metadata7">
    <rdf:RDF>
      <cc:Work
         rdf:about="">
        <dc:format>image/svg+xml</dc:format>
        <dc:type
           rdf:resource="http://purl.org/dc/dcmitype/StillImage" />
        <dc:title></dc:title>
      </cc:Work>
    </rdf:RDF>
  </metadata>
  <g
     inkscape:label="Layer 1"
     inkscape:groupmode="layer"
     id="layer1"
     transform="translate(-412.93557,-538.73591)">
    <g
       style="font-size:40px;font-style:normal;font-weight:normal;line-height:125%;letter-spacing:0px;word-spacing:0px;fill:#000000;fill-opacity:1;stroke:none;font-family:Sans"
       id="text2995">
      <path
         d="m 429.73557,645.19946 -6.68,-28 -1.4,0 -6.72,28 1.48,0 1.6,-6.64 8.64,0 1.56,6.64 1.52,0 m -7.36,-24.8 3.92,16.76 -7.96,0 4.04,-16.76"
         style="font-variant:normal;font-stretch:normal;font-family:Web Serveroff;-inkscape-font-specification:Web Serveroff"
         id="path3145" />
      <path
         d="m 444.2487,645.19946 0,-30 -1.4,0 0,10.56 c -1.4,-0.52 -2.8,-0.96 -4.16,-0.96 -3.04,0 -5.52,1.72001 -5.52,5.56 l 0,9.68 c 0,3.84 2.48,5.56 5.52,5.56 1.36,0 2.76,-0.44 4.16,-0.92 l 0,0.52 1.4,0 m -5.56,-19 c 1.28,0 2.68,0.24 4.16,0.72 l 0,16.6 c -1.48,0.44 -2.88,0.68 -4.16,0.68 -2.32,0 -4.16,-1.28 -4.16,-4.16 l 0,-9.68 c 0,-2.87999 1.84,-4.16 4.16,-4.16"
         style="font-variant:normal;font-stretch:normal;font-family:Web Serveroff;-inkscape-font-specification:Web Serveroff"
         id="path3147" />
      <path
         d="m 450.1537,615.19946 -1.36,0 0,30 1.36,0 0,-0.64 c 1.48,0.6 3.08,1.04 4.16,1.04 3.07999,0 5.56,-1.72 5.56,-5.56 l 0,-9.68 c 0,-3.83999 -2.48001,-5.56 -5.56,-5.56 -1.08,0 -2.68,0.48 -4.16,1.08 l 0,-10.68 m 4.16,29 c -1.28,0 -2.68,-0.24 -4.16,-0.68 l 0,-16.6 c 1.48,-0.48 2.88,-0.72 4.16,-0.72 2.32,0 4.16,1.28001 4.16,4.16 l 0,9.68 c 0,2.88 -1.84,4.16 -4.16,4.16"
         style="font-variant:normal;font-stretch:normal;font-family:Web Serveroff;-inkscape-font-specification:Web Serveroff"
         id="path3149" />
      <path
         d="m 465.7387,615.19946 -1.4,0 0,30 1.4,0 0,-30"
         style="font-variant:normal;font-stretch:normal;font-family:Web Serveroff;-inkscape-font-specification:Web Serveroff"
         id="path3151" />
      <path
         d="m 481.1237,630.35946 c 0,-3.83999 -2.48001,-5.56 -5.56,-5.56 -3.04,0 -5.52,1.72001 -5.52,5.56 l 0,9.68 c 0,3.84 2.48,5.56 5.52,5.56 3.07999,0 5.56,-1.72 5.56,-5.56 l 0,-9.68 m -1.4,9.68 c 0,2.88 -1.84,4.16 -4.16,4.16 -2.32,0 -4.16,-1.28 -4.16,-4.16 l 0,-9.68 c 0,-2.87999 1.84,-4.16 4.16,-4.16 2.32,0 4.16,1.28001 4.16,4.16 l 0,9.68"
         style="font-variant:normal;font-stretch:normal;font-family:Web Serveroff;-inkscape-font-specification:Web Serveroff"
         id="path3153" />
      <path
         d="m 491.1887,626.19946 c 1.08,0 2.88,0.4 4.76,1.08 l 0,-1.48 c -1.76,-0.64 -3.56,-1 -4.76,-1 -3.08,0 -5.56,1.72001 -5.56,5.56 l 0,9.68 c 0,3.84 2.48,5.56 5.56,5.56 1.2,0 3,-0.36 4.76,-1 l 0,-1.48 c -1.88,0.68 -3.68,1.08 -4.76,1.08 -2.32,0 -4.16,-1.28 -4.16,-4.16 l 0,-9.68 c 0,-2.87999 1.84,-4.16 4.16,-4.16"
         style="font-variant:normal;font-stretch:normal;font-family:Web Serveroff;-inkscape-font-specification:Web Serveroff"
         id="path3155" />
      <path
         d="m 511.59432,645.19946 -4.72,-10 4.68,-10 -1.52,0 -4.28,9.32 -3.96,0 0,-19.32 -1.36,0 0,30 1.36,0 0,-9.32 3.96,0 4.32,9.32 1.52,0"
         style="font-variant:normal;font-stretch:normal;font-family:Web Serveroff;-inkscape-font-specification:Web Serveroff"
         id="path3157" />
      <path
         d="m 521.28182,616.79946 c -3.39999,0 -6.2,1.96001 -6.2,6.2 l 0,16.4 c 0,4.24 2.80001,6.2 6.2,6.2 1.8,0 3.6,-0.36 5.4,-1 l 0,-1.52 c -1.92,0.72 -3.76,1.12 -5.4,1.12 -2.67999,0 -4.8,-1.44 -4.8,-4.8 l 0,-16.4 c 0,-3.35999 2.12001,-4.8 4.8,-4.8 1.64,0 3.48,0.4 5.4,1.12 l 0,-1.52 c -1.8,-0.64 -3.6,-1 -5.4,-1"
         style="font-weight:bold;stroke:#000000;stroke-opacity:1"
         id="path3159" />
      <path
         d="m 530.3162,640.03946 c 0,3.84 2.48,5.56 5.56,5.56 1.08,0 2.64,-0.44 4.16,-0.96 l 0,0.56 1.4,0 0,-14.84 c 0,-3.83999 -2.52001,-5.56 -5.44,-5.56 -1.36,0 -3.08,0.36 -4.88,1 l 0,1.48 c 1.88,-0.68 3.64,-1.08 4.84,-1.08 2.2,0 4.08,1.28001 4.08,4.16 l 0,2.6 -4.16,0 c -3.04,0 -5.52,1.68001 -5.52,5.52 l 0,1.56 -0.04,0 m 5.56,4.16 c -2.32,0 -4.16,-1.28 -4.16,-4.16 l 0,-1.56 c 0,-2.83999 1.84,-4.12 4.16,-4.12 l 4.16,0 0,9.16 c -1.48,0.44 -2.88,0.68 -4.16,0.68"
         style="font-weight:bold;stroke:#000000;stroke-opacity:1"
         id="path3161" />
      <path
         d="m 550.5412,648.10946 0,-2.64 c 2.28,-0.21 4.08,-1.65 4.08,-4.56 l 0,-2.04 c 0,-3.65999 -2.37,-4.35 -4.08,-4.53 l 0,-9.21 c 1.08,0.06 2.25,0.3 3.51,0.63 l 0,-1.11 c -1.2,-0.3 -2.37,-0.48 -3.51,-0.54 l 0,-2.64 -1.05,0 0,2.67 c -2.28,0.21 -4.05,1.65001 -4.05,4.56 l 0,2.01 c 0,3.66 2.34,4.35 4.05,4.56 l 0,9.18 c -1.35,-0.06 -2.7,-0.36 -4.05,-0.78 l 0,1.08 c 1.32,0.42 2.7,0.66 4.05,0.72 l 0,2.64 1.05,0 m 3.03,-9.24 0,2.04 c 0,2.28 -1.32,3.36 -3.03,3.51 l 0,-9.03 c 1.29,0.15 3.03,0.72001 3.03,3.48 m -7.08,-8.16 0,-2.01 c 0,-2.27999 1.29,-3.36 3,-3.54 l 0,9.06 c -1.29,-0.18 -3,-0.75 -3,-3.51"
         style="font-size:30px"
         id="path3163" />
      <path
         d="m 559.93885,645.19946 0,-18.28 c 1.48,-0.48 2.88001,-0.72 4.16,-0.72 2.32,0 4.16,1.28001 4.16,4.16 l 0,14.84 1.4,0 0,-14.84 c 0,-3.83999 -2.48,-5.56 -5.56,-5.56 -1.39999,0 -2.8,0.44 -4.16,0.96 l 0,-10.56 -1.36,0 0,30 1.36,0"
         style="font-weight:bold;stroke:#000000;stroke-opacity:1"
         id="path3165" />
    </g>
    <g
       id="g3219"
       transform="translate(96.638167,-42.911178)"
       inkscape:export-filename="/home/listmsz/adblockcash/app/adblockchash-static/images/logo-adblockcash.png"
       inkscape:export-xdpi="125.72928"
       inkscape:export-ydpi="125.72928">
      <path
         inkscape:export-ydpi="90"
         inkscape:export-xdpi="90"
         inkscape:export-filename="/home/listmsz/adblockcash/app/images/logo-adblockcash.png"
         transform="matrix(0.28250649,0,0,0.28250649,330.24936,439.14382)"
         d="m 309.75157,699.4537 -108.51268,29.07589 -79.43679,-79.4368 29.07588,-108.51268 108.51268,-29.07588 79.43679,79.43679 z"
         inkscape:randomized="0"
         inkscape:rounded="0"
         inkscape:flatsided="true"
         sodipodi:arg2="1.3089969"
         sodipodi:arg1="0.78539816"
         sodipodi:r2="97.289803"
         sodipodi:r1="112.34059"
         sodipodi:cy="620.01691"
         sodipodi:cx="230.31477"
         sodipodi:sides="6"
         id="path2993"
         style="fill:#c0392b;fill-opacity:1"
         sodipodi:type="star" />
      <path
         inkscape:connector-curvature="0"
         inkscape:export-ydpi="90"
         inkscape:export-xdpi="90"
         inkscape:export-filename="/home/listmsz/adblockcash/app/images/logo-adblockcash.png"
         id="path3903"
         d="m 398.40625,593 -2.34375,2.65625 -2.9375,6.25 -2.15625,6.53125 6.625,5.53125 5.09375,6.59375 -4.84375,4.375 -14.71875,1.96875 14.5,15.25 20.125,-5.40625 5.625,-21.03125 -17.03125,-17.1875 -1.78125,1.15625 L 398.40625,593 z"
         style="fill:#af392b;fill-opacity:1;stroke:none" />
      <path
         inkscape:export-ydpi="90"
         inkscape:export-xdpi="90"
         inkscape:export-filename="/home/listmsz/adblockcash/app/images/logo-adblockcash.png"
         style="fill:#ffffff"
         d="m 394.48817,607.84485 c -2.65198,-1.32603 -2.37024,-4.19893 1.56356,-4.41994 3.18411,-0.17894 6.49991,1.02809 8.52867,1.71824 0,0 1.27012,-5.57058 1.56424,-6.85426 -2.93795,-0.91882 -5.48223,-1.37951 -7.9763,-1.55078 v -3.78847 h -5.81997 v 4.12848 c -6.41038,1.39925 -8.99092,6.13061 -8.99092,9.57335 0,8.30943 9.93567,9.66495 12.82331,10.96142 3.41809,1.47334 2.68648,4.08081 -0.21826,4.71474 -3.3207,0.72464 -7.81091,-0.78467 -10.88849,-1.98542 l -1.92558,6.70705 c 2.71773,1.49781 6.40654,2.51008 9.19994,2.74927 v 3.63791 h 5.81997 v -4.06745 c 5.22959,-0.73554 9.64677,-3.96446 9.63901,-9.63448 0,-7.33705 -7.87891,-9.4292 -13.31918,-11.88966 z"
         id="currency-dollar-icon"
         inkscape:connector-curvature="0" />
    </g>
  </g>
</svg>
