<?xml version="1.0" encoding="utf-8"?>
<!-- Generator: Adobe Illustrator 16.0.0, SVG Export Plug-In . SVG Version: 6.00 Build 0)  -->
<!DOCTYPE svg PUBLIC "-//W3C//DTD SVG 1.1//EN" "http://www.w3.org/Graphics/SVG/1.1/DTD/svg11.dtd">
<svg version="1.1"
	 id="svg2" inkscape:version="0.48.4 r9939" sodipodi:docname="adblockCash_2_clean_svg.svg" inkscape:export-filename="/home/listmsz/Pobrane/adblockCash_2.png" inkscape:export-xdpi="90" inkscape:export-ydpi="90" xmlns:dc="http://purl.org/dc/elements/1.1/" xmlns:cc="http://creativecommons.org/ns#" xmlns:rdf="http://www.w3.org/1999/02/22-rdf-syntax-ns#" xmlns:svg="http://www.w3.org/2000/svg" xmlns:sodipodi="http://sodipodi.sourceforge.net/DTD/sodipodi-0.dtd" xmlns:inkscape="http://www.inkscape.org/namespaces/inkscape"
	 xmlns="http://www.w3.org/2000/svg" xmlns:xlink="http://www.w3.org/1999/xlink" x="0px" y="0px" width="63px" height="63px"
	 viewBox="0 0 63 63" enable-background="new 0 0 63 63" xml:space="preserve">
<sodipodi:namedview  inkscape:pageopacity="0.0" inkscape:window-height="744" inkscape:document-units="px" inkscape:window-x="45" inkscape:snap-global="false" fit-margin-right="2" fit-margin-bottom="2" inkscape:window-y="24" inkscape:pageshadow="2" inkscape:window-maximized="1" inkscape:window-width="1315" inkscape:guide-bbox="true" inkscape:current-layer="layer1" id="base" pagecolor="#ffffff" bordercolor="#666666" borderopacity="1.0" inkscape:zoom="0.9899495" inkscape:cx="-64.199985" inkscape:cy="-111.73093" showgrid="false" showguides="true" fit-margin-left="2" fit-margin-top="2">
	<sodipodi:guide  orientation="0,1" position="-15.693085,36.153493" id="guide3880"></sodipodi:guide>
	<sodipodi:guide  orientation="0,1" position="35.067075,66.205523" id="guide3882"></sodipodi:guide>
	<sodipodi:guide  orientation="0,1" position="43.653375,4.586223" id="guide3884"></sodipodi:guide>
	<sodipodi:guide  orientation="-0.70710678,0.70710678" position="-10.389785,36.153493" id="guide3886"></sodipodi:guide>
	<sodipodi:guide  orientation="0.70710678,0.70710678" position="-18.976085,11.783563" id="guide3888"></sodipodi:guide>
	<sodipodi:guide  orientation="0.70710678,0.70710678" position="30.773935,13.930133" id="guide3890"></sodipodi:guide>
	<sodipodi:guide  orientation="0.70710678,0.70710678" position="48.325335,-3.621267" id="guide3892"></sodipodi:guide>
	<sodipodi:guide  orientation="0.70710678,0.70710678" position="-14.714505,57.082583" id="guide3894"></sodipodi:guide>
	<sodipodi:guide  orientation="0.70710678,0.70710678" position="-14.140935,10.158003" id="guide3896"></sodipodi:guide>
	<sodipodi:guide  orientation="1,0" position="79.528267,20.323903" id="guide3217"></sodipodi:guide>
</sodipodi:namedview>
<g id="layer1" transform="translate(-412.93557,-538.73591)" inkscape:groupmode="layer" inkscape:label="Layer 1">
	
		<g id="g3219" transform="translate(96.638167,-42.911178)" inkscape:export-filename="/home/listmsz/adblockcash/app/adblockchash-static/images/logo-adblockcash.png" inkscape:export-xdpi="125.72928" inkscape:export-ydpi="125.72928">
		
			<path id="path2993" inkscape:randomized="0" inkscape:rounded="0" inkscape:flatsided="true" inkscape:export-filename="/home/listmsz/adblockcash/app/images/logo-adblockcash.png" inkscape:export-xdpi="90" inkscape:export-ydpi="90" sodipodi:arg2="1.3089969" sodipodi:arg1="0.78539816" sodipodi:r2="97.289803" sodipodi:r1="112.34059" sodipodi:cy="620.01691" sodipodi:cx="230.31477" sodipodi:sides="6" sodipodi:type="star" fill="#898989" d="
			M370.239,635.589l-30.656,8.213l-22.441-22.439l8.215-30.656l30.656-8.214l22.44,22.44L370.239,635.589z"/>
		
			<path id="path3903" inkscape:connector-curvature="0" inkscape:export-filename="/home/listmsz/adblockcash/app/images/logo-adblockcash.png" inkscape:export-xdpi="90" inkscape:export-ydpi="90" fill="#727272" d="
			M350.889,591.844l-2.345,2.656l-2.938,6.25l-2.156,6.531l6.625,5.53l5.094,6.595l-4.844,4.375l-14.719,1.969l14.5,15.25
			l20.125-5.406l5.625-21.031l-17.031-17.188l-1.781,1.156L350.889,591.844z"/>
		
			<path id="currency-dollar-icon" inkscape:connector-curvature="0" inkscape:export-filename="/home/listmsz/adblockcash/app/images/logo-adblockcash.png" inkscape:export-xdpi="90" inkscape:export-ydpi="90" fill="#FFFFFF" d="
			M346.971,606.689c-2.651-1.325-2.371-4.197,1.562-4.42c3.186-0.179,6.5,1.028,8.529,1.72c0,0,1.27-5.57,1.562-6.854
			c-2.938-0.919-5.48-1.38-7.977-1.551v-3.788h-5.819v4.128c-6.41,1.399-8.991,6.131-8.991,9.573c0,8.309,9.936,9.665,12.823,10.961
			c3.418,1.475,2.687,4.082-0.218,4.715c-3.321,0.725-7.812-0.785-10.889-1.984l-1.927,6.707c2.718,1.496,6.407,2.51,9.2,2.748
			v3.639h5.82v-4.066c5.229-0.736,9.646-3.965,9.639-9.635C360.29,611.241,352.411,609.151,346.971,606.689L346.971,606.689z"/>
	</g>
</g>
</svg>
