<?xml version="1.0" encoding="utf-8"?>
<!-- Generator: Adobe Illustrator 16.0.0, SVG Export Plug-In . SVG Version: 6.00 Build 0)  -->
<!DOCTYPE svg PUBLIC "-//W3C//DTD SVG 1.1//EN" "http://www.w3.org/Graphics/SVG/1.1/DTD/svg11.dtd">
<svg version="1.1"
	 id="svg2" inkscape:export-filename="/home/listmsz/Pobrane/adblockCash_2.png" sodipodi:docname="adblockCash_2_clean_svg.svg" inkscape:version="0.48.4 r9939" inkscape:export-ydpi="90" inkscape:export-xdpi="90" xmlns:dc="http://purl.org/dc/elements/1.1/" xmlns:cc="http://creativecommons.org/ns#" xmlns:rdf="http://www.w3.org/1999/02/22-rdf-syntax-ns#" xmlns:svg="http://www.w3.org/2000/svg" xmlns:sodipodi="http://sodipodi.sourceforge.net/DTD/sodipodi-0.dtd" xmlns:inkscape="http://www.inkscape.org/namespaces/inkscape"
	 xmlns="http://www.w3.org/2000/svg" xmlns:xlink="http://www.w3.org/1999/xlink" x="0px" y="0px" width="63px" height="63px"
	 viewBox="47.862 15.187 63 63" enable-background="new 47.862 15.187 63 63" xml:space="preserve">
<sodipodi:namedview  fit-margin-bottom="2" fit-margin-right="2" inkscape:snap-global="false" inkscape:guide-bbox="true" inkscape:window-maximized="1" inkscape:window-y="24" inkscape:window-x="45" inkscape:window-height="744" inkscape:window-width="1315" inkscape:pageshadow="2" inkscape:current-layer="layer1" inkscape:document-units="px" inkscape:pageopacity="0.0" fit-margin-top="2" fit-margin-left="2" showguides="true" showgrid="false" inkscape:cy="-111.73093" inkscape:cx="-64.199985" inkscape:zoom="0.9899495" borderopacity="1.0" bordercolor="#666666" pagecolor="#ffffff" id="base">
	<sodipodi:guide  position="-15.693085,36.153493" orientation="0,1" id="guide3880"></sodipodi:guide>
	<sodipodi:guide  position="35.067075,66.205523" orientation="0,1" id="guide3882"></sodipodi:guide>
	<sodipodi:guide  position="43.653375,4.586223" orientation="0,1" id="guide3884"></sodipodi:guide>
	<sodipodi:guide  position="-10.389785,36.153493" orientation="-0.70710678,0.70710678" id="guide3886"></sodipodi:guide>
	<sodipodi:guide  position="-18.976085,11.783563" orientation="0.70710678,0.70710678" id="guide3888"></sodipodi:guide>
	<sodipodi:guide  position="30.773935,13.930133" orientation="0.70710678,0.70710678" id="guide3890"></sodipodi:guide>
	<sodipodi:guide  position="48.325335,-3.621267" orientation="0.70710678,0.70710678" id="guide3892"></sodipodi:guide>
	<sodipodi:guide  position="-14.714505,57.082583" orientation="0.70710678,0.70710678" id="guide3894"></sodipodi:guide>
	<sodipodi:guide  position="-14.140935,10.158003" orientation="0.70710678,0.70710678" id="guide3896"></sodipodi:guide>
	<sodipodi:guide  position="79.528267,20.323903" orientation="1,0" id="guide3217"></sodipodi:guide>
</sodipodi:namedview>
<g id="layer1" transform="translate(-412.93557,-538.73591)" inkscape:groupmode="layer" inkscape:label="Layer 1">
	
		<g id="g3219" transform="translate(96.638167,-42.911178)" inkscape:export-filename="/home/listmsz/adblockcash/app/adblockchash-static/images/logo-adblockcash.png" inkscape:export-ydpi="125.72928" inkscape:export-xdpi="125.72928">
		
			<path id="path2993" inkscape:flatsided="true" inkscape:rounded="0" inkscape:randomized="0" inkscape:export-filename="/home/listmsz/adblockcash/app/images/logo-adblockcash.png" inkscape:export-ydpi="90" inkscape:export-xdpi="90" sodipodi:type="star" sodipodi:sides="6" sodipodi:cx="230.31477" sodipodi:cy="620.01691" sodipodi:r1="112.34059" sodipodi:r2="97.289803" sodipodi:arg1="0.78539816" sodipodi:arg2="1.3089969" fill="#C0392B" d="
			M418.1,650.744l-30.656,8.214l-22.441-22.441l8.215-30.655l30.655-8.214l22.441,22.441L418.1,650.744z"/>
		
			<path id="path3903" inkscape:connector-curvature="0" inkscape:export-filename="/home/listmsz/adblockcash/app/images/logo-adblockcash.png" inkscape:export-ydpi="90" inkscape:export-xdpi="90" fill="#AF392B" d="
			M398.75,607l-2.344,2.656l-2.938,6.25l-2.156,6.531l6.625,5.531l5.094,6.594l-4.844,4.375l-14.719,1.969l14.5,15.25l20.125-5.406
			l5.625-21.031l-17.031-17.188l-1.781,1.156L398.75,607z"/>
		
			<path id="currency-dollar-icon" inkscape:connector-curvature="0" inkscape:export-filename="/home/listmsz/adblockcash/app/images/logo-adblockcash.png" inkscape:export-ydpi="90" inkscape:export-xdpi="90" fill="#FFFFFF" d="
			M394.832,621.845c-2.651-1.326-2.37-4.198,1.563-4.42c3.185-0.179,6.5,1.028,8.529,1.719c0,0,1.27-5.57,1.563-6.854
			c-2.938-0.919-5.481-1.38-7.976-1.551v-3.788h-5.82v4.128c-6.41,1.399-8.991,6.131-8.991,9.573c0,8.31,9.936,9.665,12.823,10.962
			c3.418,1.474,2.687,4.081-0.218,4.715c-3.321,0.725-7.812-0.785-10.889-1.985l-1.926,6.707c2.718,1.497,6.407,2.51,9.2,2.749
			v3.638h5.82v-4.067c5.229-0.735,9.646-3.965,9.639-9.635C408.151,626.397,400.272,624.306,394.832,621.845L394.832,621.845z"/>
	</g>
</g>
</svg>
